HIERARCHY
ROOT Hips
{
  OFFSET 0.000000 0.000000 0.000000
  CHANNELS 6 Xposition Yposition Zposition Zrotation Xrotation Yrotation
  JOINT LeftUpLeg
  {
    OFFSET 8.642590 1.953980 -2.388350
    CHANNELS 3 Zrotation Xrotation Yrotation
    JOINT LeftLeg
    {
      OFFSET 43.770199 0.000000 0.000000
      CHANNELS 3 Zrotation Xrotation Yrotation
      JOINT LeftFoot
      {
        OFFSET 40.623798 0.000000 0.000000
        CHANNELS 3 Zrotation Xrotation Yrotation
        JOINT LeftToeBase
        {
          OFFSET 12.724200 0.000000 0.000000
          CHANNELS 3 Zrotation Xrotation Yrotation
          End Site
          {
            OFFSET 0.000000 0.000000 0.000000
          }
        }
      }
    }
  }
  JOINT RightUpLeg
  {
    OFFSET -8.224900 1.953980 -2.593360
    CHANNELS 3 Zrotation Xrotation Yrotation
    JOINT RightLeg
    {
      OFFSET 43.565300 0.000000 0.000000
      CHANNELS 3 Zrotation Xrotation Yrotation
      JOINT RightFoot
      {
        OFFSET 40.623798 0.000000 0.000000
        CHANNELS 3 Zrotation Xrotation Yrotation
        JOINT RightToeBase
        {
          OFFSET 12.724200 0.000000 0.000000
          CHANNELS 3 Zrotation Xrotation Yrotation
          End Site
          {
            OFFSET 0.000000 0.000000 0.000000
          }
        }
      }
    }
  }
  JOINT Spine
  {
    OFFSET 0.165834 0.877140 6.613490
    CHANNELS 3 Zrotation Xrotation Yrotation
    JOINT Spine1
    {
      OFFSET 7.389630 0.000017 0.000000
      CHANNELS 3 Zrotation Xrotation Yrotation
      JOINT Spine2
      {
        OFFSET 11.944500 0.000011 0.000000
        CHANNELS 3 Zrotation Xrotation Yrotation
        JOINT Spine3
        {
          OFFSET 14.725400 0.000042 0.000000
          CHANNELS 3 Zrotation Xrotation Yrotation
          JOINT Spine4
          {
            OFFSET 10.967900 0.000000 0.000000
            CHANNELS 3 Zrotation Xrotation Yrotation
            JOINT RightShoulder
            {
              OFFSET 2.466160 -1.665300 3.696510
              CHANNELS 3 Zrotation Xrotation Yrotation
              JOINT RightArm
              {
                OFFSET 13.001200 0.000000 0.000000
                CHANNELS 3 Zrotation Xrotation Yrotation
                JOINT RightForeArm
                {
                  OFFSET 28.784800 0.000015 0.000000
                  CHANNELS 3 Zrotation Xrotation Yrotation
                  JOINT RightHand
                  {
                    OFFSET 26.568800 0.000015 0.000000
                    CHANNELS 3 Zrotation Xrotation Yrotation
                    End Site
                    {
                      OFFSET 0.000000 0.000000 0.000000
                    }
                  }
                }
              }
            }
            JOINT LeftShoulder
            {
              OFFSET 2.380340 -1.292750 -3.752300
              CHANNELS 3 Zrotation Xrotation Yrotation
              JOINT LeftArm
              {
                OFFSET 16.318199 0.000061 0.000000
                CHANNELS 3 Zrotation Xrotation Yrotation
                JOINT LeftForeArm
                {
                  OFFSET 27.090099 0.000000 0.000000
                  CHANNELS 3 Zrotation Xrotation Yrotation
                  JOINT LeftHand
                  {
                    OFFSET 24.545099 0.000015 0.000000
                    CHANNELS 3 Zrotation Xrotation Yrotation
                    End Site
                    {
                      OFFSET 0.000000 0.000000 0.000000
                    }
                  }
                }
              }
            }
            JOINT Neck
            {
              OFFSET 5.022600 -0.026634 0.000000
              CHANNELS 3 Zrotation Xrotation Yrotation
              JOINT Head
              {
                OFFSET 6.693640 0.000029 0.000000
                CHANNELS 3 Zrotation Xrotation Yrotation
                End Site
                {
                  OFFSET 0.000000 0.000000 0.000000
                }
              }
            }
          }
        }
      }
    }
  }
}
MOTION
Frames: 12
Frame Time: 0.041667
46.24925835088895 -90.74439900000002 -294.96617790581325 88.20653700921157 3.773607694520575 -82.79243219336699 -172.440002 -4.8772 91.257797 -13.3113 -2.90475 -0.915202 69.4282 5.82354 -2.38385 20.16 -7.65463 8.72279 172.391998 -2.75028 87.756401 -16.197201 -6.8153 0.412867 68.269302 -4.53123 0.595713 25.7236 0.192556 5.46037 0.306246 7.23128 -89.945198 12.4114 0.634597 0.036926 0.74059 0.6356 0.008947 -21.7957 0.594161 0.225942 -1.78304 0.594159 0.225942 88.196899 -26.123301 -112.093002 24.663799 6.79247 -27.723 -0.271948 -4.28124 -44.736401 -1.90743 0.126516 -30.7948 -89.376801 -48.558998 79.361298 -9.83249 9.58239 -35.512299 -21.5289 -28.818199 -50.7673 -17.275801 0.985335 -12.5771 1.36698 -0.052732 -1.73535 -11.426 0.113927 1.17781
46.35164964452749 -90.73840200000002 -294.9013536656941 88.2739802703602 3.5496932518937894 -82.93026651840614 -172.397003 -4.80728 91.318199 -13.2279 -2.58099 -0.952629 69.405998 5.95037 -2.07122 20.1422 -7.39093 7.9505 172.037994 -2.70876 87.575699 -16.145399 -6.96969 0.744765 68.530296 -4.7532 0.372312 25.1269 0.308963 5.82068 0.291943 7.2055 -89.964798 12.463 0.596848 0.001703 0.792242 0.596349 -0.024574 -21.7439 0.568732 0.181008 -1.73129 0.568741 0.181008 88.299103 -25.999001 -111.942001 24.6639 6.88755 -27.915001 0.102221 -3.52078 -44.1814 -1.43822 0.079764 -30.4067 -89.413101 -48.944 79.387001 -9.57121 9.64437 -35.520302 -21.573 -28.593599 -50.778801 -17.940599 1.02101 -12.4877 1.0242 -0.135834 -1.82676 -10.937 0.017469 1.52866
46.41513602390973 -90.72940000000003 -294.87002509769405 88.45661321130783 3.515067864868528 -82.93809331701131 -172.354004 -4.6792 91.452003 -13.5467 -2.37025 -0.907997 69.607002 5.89679 -2.32071 20.321899 -7.74816 9.2829 172.173996 -2.85132 87.771599 -15.9979 -6.8216 0.717165 68.395897 -4.65744 0.729162 25.5201 0.32409 5.00738 0.299694 7.19911 -89.982697 12.4759 0.603699 -0.034963 0.805122 0.601571 -0.061502 -21.7311 0.58629 0.148097 -1.71846 0.586293 0.148094 88.204903 -26.216499 -112.030998 24.7211 7.14142 -27.904301 -0.811202 -4.23584 -44.4785 -1.22714 -0.045025 -30.490999 -89.420303 -48.792599 79.3442 -9.83257 9.66111 -35.4631 -21.557501 -28.6003 -50.871799 -17.3939 0.934628 -12.1331 1.05143 -0.157135 -1.68362 -11.2193 0.014361 1.00437
46.47105364850411 -90.72840000000002 -294.83662118587637 88.3816594270397 3.3646000240499077 -82.8406030715684 -172.404007 -4.84286 91.381897 -13.4787 -2.45478 -0.862256 69.681099 5.9264 -2.4153 20.061399 -7.71702 8.71432 172.044998 -2.96747 87.620903 -16.0065 -6.76807 0.755446 68.338501 -4.65296 0.583289 25.677999 0.197543 5.51604 0.296734 7.19833 -89.977898 12.4774 0.600123 -0.024872 0.80664 0.598446 -0.051277 -21.729601 0.579848 0.156645 -1.71693 0.579848 0.156638 88.316803 -26.0473 -111.880997 24.957001 7.06234 -27.8918 -0.469991 -3.94729 -44.453201 -1.32161 0.007573 -30.381001 -89.327698 -48.944801 79.516502 -9.49248 9.91697 -35.3964 -21.7882 -28.5741 -51.1553 -17.2407 0.902203 -11.9664 0.930997 -0.203545 -1.81937 -11.1365 -0.052333 1.50271
46.4784950334566 -90.72139700000002 -294.8014802953073 88.352708685935 3.380340478046016 -82.86377047240866 -172.447998 -4.85377 91.306801 -13.4335 -2.65395 -0.854901 69.722603 5.91826 -2.48114 20.0196 -7.73438 8.68517 171.983002 -2.89049 87.545097 -16.0882 -6.85355 0.782554 68.339996 -4.65943 0.567759 25.600201 0.237474 5.40339 0.315692 7.18541 -89.977699 12.5033 0.637887 -0.029072 0.832528 0.635991 -0.057123 -21.7038 0.617126 0.164001 -1.69118 0.617129 0.163992 88.358704 -26.1028 -111.767998 25.1085 7.27338 -27.9403 -1.43232 -5.87699 -44.616402 -0.40752 -0.368681 -31.3948 -89.402802 -48.957901 79.405403 -9.32971 10.0689 -35.216202 -22.2796 -28.7689 -51.498001 -17.0723 0.914793 -12.1538 1.09113 -0.15448 -1.60475 -11.4598 -0.016847 1.24809
46.471716605028845 -90.70939600000003 -294.7727703568007 88.3064473225936 3.1680632024078474 -82.84819615665556 -172.490005 -4.91617 91.212402 -13.3482 -1.94263 -0.865149 69.623497 6.03876 -2.03915 20.337299 -7.71731 9.22586 171.949997 -2.90577 87.485298 -16.128 -6.6666 0.786021 68.509499 -4.71889 0.589981 25.555201 0.250323 5.40524 0.30732 7.1902 -89.983101 12.4937 0.618641 -0.037643 0.822948 0.616389 -0.064842 -21.713301 0.60135 0.15003 -1.70069 0.60135 0.150028 88.416298 -26.0231 -111.686996 25.087 7.0707 -28.0315 -0.51872 -4.25644 -44.383202 -0.627758 -0.172114 -31.115999 -89.373199 -49.014099 79.4617 -9.44291 10.0837 -35.340698 -22.442499 -29.136999 -51.651699 -16.1826 0.796316 -11.683 1.20287 -0.130686 -1.47169 -11.5067 -0.021316 1.35794
46.54394307824711 -90.75939900000002 -294.73257193171406 88.28604351061479 3.025559264157684 -81.96271011632308 -172.192993 -5.86717 91.455399 -13.2875 -1.69934 -0.930871 69.588203 5.96287 -2.29241 20.3361 -7.6902 9.14637 171.763 -3.97497 87.338799 -15.9466 -6.79798 0.76076 68.482201 -4.68386 0.710493 25.5138 0.353915 4.82602 0.308244 7.28649 -89.987602 12.3012 0.618541 -0.044881 0.630365 0.615966 -0.07206 -21.905899 0.603428 0.1431 -1.89328 0.603428 0.143094 88.204102 -25.962601 -112.156998 25.1297 7.57952 -27.531 -0.822539 -4.95567 -44.7929 -0.645962 -0.220386 -30.9974 -89.451302 -48.9076 79.321602 -9.46079 10.0063 -35.3008 -22.2855 -28.9505 -51.376701 -16.8078 0.937538 -12.4763 1.20741 -0.181756 -1.6463 -11.5301 -0.063497 1.56796
46.470604921334605 -90.75140300000004 -294.69576893883743 88.43891990489212 2.9332778287744614 -82.26662097273852 -172.147995 -5.33828 91.575996 -13.6072 -1.71747 -0.983516 69.889397 6.06617 -2.33097 19.880301 -7.96034 9.05562 171.938004 -3.71442 87.546997 -15.7799 -6.46238 0.76331 68.246902 -4.61517 0.590246 25.6427 0.233024 5.35103 0.298288 7.25891 -90.005302 12.3564 0.590264 -0.07761 0.685626 0.586279 -0.103518 -21.850599 0.586299 0.103381 -1.83795 0.586305 0.103386 88.143501 -26.0331 -112.248001 25.0769 7.81981 -27.5368 -1.22384 -5.83054 -44.783401 -0.562176 -0.312778 -31.3265 -89.406097 -48.866798 79.3815 -9.22382 10.1933 -35.220402 -22.7757 -28.971201 -51.816799 -16.833599 0.939453 -12.4706 1.21783 -0.12116 -1.8122 -11.3729 0.013158 1.69714
46.37892910230034 -90.75140300000004 -294.6717257989344 88.41708784199292 2.8173927806088126 -82.81079524091318 -172.270004 -4.77413 91.459801 -13.4962 -1.54481 -1.03899 69.690102 5.95705 -2.35698 19.9921 -7.89424 9.07828 172.039993 -3.07225 87.593697 -15.8657 -6.2045 0.770859 68.344597 -4.61662 0.68242 25.475401 0.341089 4.97786 0.287084 7.20045 -90.0065 12.4733 0.567368 -0.078303 0.802494 0.563367 -0.103208 -21.733601 0.564669 0.095844 -1.721 0.564664 0.095833 88.140297 -25.927799 -112.306 25.0145 7.98926 -27.4109 -1.54514 -6.28398 -44.834702 -0.357961 -0.401843 -31.496901 -89.420403 -49.0737 79.403198 -8.86548 10.2794 -35.3493 -22.9835 -29.1514 -51.840698 -17.0254 0.948747 -12.4398 1.12828 -0.132149 -1.62216 -11.4942 -0.006775 1.42721
46.35433854583543 -90.72640100000004 -294.6623636913861 88.39838366266042 2.492121591453648 -82.89427198851486 -172.238007 -4.53138 91.488403 -13.7163 -1.20469 -1.09664 69.780998 6.03746 -2.25729 19.9811 -7.88695 9.03729 172.210007 -3.04232 87.691002 -15.7647 -5.78605 0.644981 68.031898 -4.39567 0.766196 26.2773 0.077633 5.14788 0.256746 7.19259 -90.008598 12.489 0.506052 -0.075575 0.818144 0.502234 -0.097782 -21.7178 0.505361 0.080017 -1.70515 0.505369 0.080013 88.373001 -25.873699 -111.848999 25.0958 7.73774 -27.6998 -1.67274 -6.54376 -44.890598 -0.780739 -0.325636 -31.3923 -89.487 -49.102901 79.308701 -9.09881 9.75006 -35.480801 -21.612101 -28.357599 -51.0788 -17.0429 1.00966 -12.9006 1.35926 -0.143439 -1.69644 -12.1223 -0.022674 1.55477
46.2973360208052 -90.73039900000003 -294.5737459340788 88.29265468673438 2.5301054132651344 -82.89840060310583 -172.397995 -4.53288 91.255096 -13.6365 -1.51141 -1.0401 69.624001 5.97248 -2.14409 20.105 -7.59565 8.45542 172.145004 -2.93196 87.528999 -15.8192 -5.79674 0.6116 68.269699 -4.56595 0.603308 25.7764 0.157163 5.58969 0.251742 7.19258 -90.014198 12.5007 0.493432 -0.085367 0.82989 0.489192 -0.107012 -21.705999 0.496275 0.06688 -1.69332 0.49627 0.066873 88.361702 -25.4804 -112.065002 25.2623 7.78009 -27.556 -1.36533 -6.2986 -44.8228 -1.2883 -0.178974 -31.159599 -89.452301 -49.112499 79.362701 -9.01255 10.2459 -35.541302 -22.4356 -29.121901 -51.614899 -16.0515 0.85984 -12.2842 1.11374 -0.087398 -1.14238 -11.8243 -0.025213 1.27056
46.24499365283042 -90.73639600000003 -294.5002926091452 88.2271184572188 2.642606157090524 -82.81581642309283 -172.378006 -4.65422 91.169296 -13.5792 -1.44423 -1.12248 69.719597 6.0623 -2.12946 19.789801 -8.03081 9.08404 172.134003 -2.92081 87.449097 -15.8923 -5.9969 0.543201 68.1679 -4.51786 0.474206 25.965799 0.089588 5.67034 0.263825 7.1926 -89.995598 12.4984 0.526292 -0.052021 0.827523 0.523489 -0.075137 -21.7085 0.51759 0.108563 -1.69582 0.517589 0.108559 88.344299 -25.5284 -112.078003 25.4447 7.84067 -27.474899 -1.51848 -6.2807 -44.994598 -1.41572 -0.153179 -31.072001 -89.4384 -48.759701 79.309998 -9.31302 10.1851 -35.422501 -22.3794 -29.064501 -51.682201 -16.4951 0.883199 -12.2185 0.92896 -0.069584 -1.44162 -11.7566 0.02728 1.37289
